<svg width="12" height="12" viewBox="0 0 12 12" fill="none" xmlns="http://www.w3.org/2000/svg">
  <path d="M12 5.2922C12 2.17178 9.57477 0 6.08843 0C2.47592 0 0 2.43786 0 5.99685C0 9.67046 2.41014 12 6.21352 12C7.14306 12 8.03487 11.8706 8.69806 11.6477V10.7411C8.23436 10.9504 7.23796 11.0861 6.22861 11.0861C3.07333 11.0861 1.03846 9.10885 1.03846 6.03997C1.03846 3.0489 3.10999 0.906573 5.99245 0.906573C8.94177 0.906573 10.9615 2.68186 10.9615 5.27748C10.9615 7.04645 10.3641 8.18966 9.43458 8.18966C8.90403 8.18966 8.60209 7.89518 8.60209 7.39036V3.17195H7.48922V4.04908H7.3706C7.08375 3.42331 6.42056 3.03523 5.64522 3.03523C4.13551 3.03523 3.08088 4.25732 3.08088 6.00421C3.08088 7.83103 4.11287 9.06047 5.6463 9.06047C6.50899 9.06047 7.17218 8.65031 7.48922 7.91727H7.60784C7.69518 8.62191 8.36592 9.12463 9.22861 9.12463C10.9238 9.12463 12 7.63646 12 5.29325V5.2922ZM4.2606 6.0326C4.2606 4.77371 4.84292 4.02699 5.8307 4.02699C6.83357 4.02699 7.47412 4.80316 7.47412 6.0326C7.47412 7.26205 6.82602 8.04557 5.8156 8.04557C4.85047 8.04557 4.2606 7.28309 4.2606 6.0326Z" fill="#8D8B8B"/>
</svg>