<svg width="18" height="18" viewBox="0 0 18 18" fill="none" xmlns="http://www.w3.org/2000/svg">
<path d="M4.87494 3.37506V1.50006C4.87494 1.20169 4.99346 0.915543 5.20444 0.704564C5.41542 0.493586 5.70157 0.375059 5.99994 0.375059C6.29831 0.375059 6.58445 0.493586 6.79543 0.704564C7.00641 0.915543 7.12494 1.20169 7.12494 1.50006V3.37506C7.12494 3.67343 7.00641 3.95958 6.79543 4.17055C6.58445 4.38153 6.29831 4.50006 5.99994 4.50006C5.70157 4.50006 5.41542 4.38153 5.20444 4.17055C4.99346 3.95958 4.87494 3.67343 4.87494 3.37506ZM11.9999 13.5001C11.7016 13.5001 11.4154 13.6186 11.2044 13.8296C10.9935 14.0405 10.8749 14.3267 10.8749 14.6251V16.5001C10.8749 16.7984 10.9935 17.0846 11.2044 17.2956C11.4154 17.5065 11.7016 17.6251 11.9999 17.6251C12.2983 17.6251 12.5845 17.5065 12.7954 17.2956C13.0064 17.0846 13.1249 16.7984 13.1249 16.5001V14.6251C13.1249 14.3267 13.0064 14.0405 12.7954 13.8296C12.5845 13.6186 12.2983 13.5001 11.9999 13.5001ZM1.49994 7.12506H3.37494C3.67331 7.12506 3.95945 7.00653 4.17043 6.79556C4.38141 6.58458 4.49994 6.29843 4.49994 6.00006C4.49994 5.70169 4.38141 5.41554 4.17043 5.20456C3.95945 4.99359 3.67331 4.87506 3.37494 4.87506H1.49994C1.20157 4.87506 0.91542 4.99359 0.704442 5.20456C0.493464 5.41554 0.374937 5.70169 0.374937 6.00006C0.374937 6.29843 0.493464 6.58458 0.704442 6.79556C0.91542 7.00653 1.20157 7.12506 1.49994 7.12506ZM16.4999 10.8751H14.6249C14.3266 10.8751 14.0404 10.9936 13.8294 11.2046C13.6185 11.4155 13.4999 11.7017 13.4999 12.0001C13.4999 12.2984 13.6185 12.5846 13.8294 12.7956C14.0404 13.0065 14.3266 13.1251 14.6249 13.1251H16.4999C16.7983 13.1251 17.0845 13.0065 17.2954 12.7956C17.5064 12.5846 17.6249 12.2984 17.6249 12.0001C17.6249 11.7017 17.5064 11.4155 17.2954 11.2046C17.0845 10.9936 16.7983 10.8751 16.4999 10.8751ZM7.79178 13.9205L7.10609 14.6062C6.61382 15.0985 5.94615 15.3751 5.24994 15.3751C4.55374 15.3752 3.88604 15.0986 3.39373 14.6064C2.90143 14.1141 2.62484 13.4464 2.62481 12.7502C2.62478 12.054 2.90132 11.3863 3.39359 10.894L4.07938 10.2083C4.18524 10.1042 4.26945 9.98009 4.32712 9.84324C4.3848 9.70639 4.41481 9.55947 4.41542 9.41096C4.41604 9.26246 4.38724 9.1153 4.3307 8.97798C4.27415 8.84065 4.19098 8.71589 4.08597 8.61087C3.98097 8.50585 3.85621 8.42266 3.71889 8.3661C3.58158 8.30954 3.43442 8.28073 3.28592 8.28133C3.13741 8.28192 2.99049 8.31191 2.85363 8.36958C2.71678 8.42724 2.59269 8.51142 2.48853 8.61728L1.80275 9.30287C0.888499 10.2171 0.374878 11.4571 0.374878 12.7501C0.374878 14.043 0.888499 15.283 1.80275 16.1972C2.717 17.1115 3.95699 17.6251 5.24994 17.6251C6.54288 17.6251 7.78287 17.1115 8.69713 16.1972L9.38272 15.5116C9.59086 15.3 9.70697 15.0148 9.70576 14.718C9.70455 14.4212 9.58612 14.1369 9.37627 13.9271C9.16641 13.7172 8.88213 13.5988 8.58535 13.5976C8.28857 13.5964 8.00334 13.7125 7.79178 13.9206V13.9205ZM14.6061 3.3939C15.0976 3.88657 15.3736 4.55407 15.3737 5.24999C15.3737 5.94591 15.0977 6.61343 14.6062 7.10612L13.9205 7.79181C13.8146 7.89596 13.7304 8.02003 13.6728 8.15688C13.6151 8.29373 13.5851 8.44065 13.5845 8.58916C13.5838 8.73766 13.6126 8.88482 13.6692 9.02214C13.7257 9.15947 13.8089 9.28424 13.9139 9.38925C14.0189 9.49427 14.1437 9.57746 14.281 9.63402C14.4183 9.69058 14.5655 9.71939 14.714 9.71879C14.8625 9.7182 15.0094 9.68821 15.1462 9.63055C15.2831 9.57288 15.4072 9.4887 15.5113 9.38284L16.1971 8.69725C16.6498 8.24456 17.0089 7.70713 17.2539 7.11566C17.4989 6.52419 17.625 5.89026 17.625 5.25006C17.625 4.60986 17.4989 3.97592 17.2539 3.38446C17.0089 2.79299 16.6498 2.25556 16.1971 1.80287C15.7444 1.35018 15.207 0.991087 14.6155 0.746092C14.0241 0.501097 13.3901 0.375 12.7499 0.375C12.1097 0.375 11.4758 0.501097 10.8843 0.746092C10.2929 0.991087 9.75544 1.35018 9.30275 1.80287L8.61716 2.48856C8.40902 2.70012 8.2929 2.98535 8.29411 3.28213C8.29532 3.57891 8.41375 3.86319 8.62361 4.07305C8.83346 4.2829 9.11774 4.40133 9.41452 4.40254C9.7113 4.40375 9.99654 4.28764 10.2081 4.0795L10.8938 3.3939C11.3865 2.90238 12.054 2.62634 12.7499 2.62634C13.4459 2.62634 14.1134 2.90238 14.6061 3.3939Z" fill="#6D727A"/>
</svg>
