<svg width="20" height="20" viewBox="0 0 20 20" fill="none" xmlns="http://www.w3.org/2000/svg">
<path d="M14.2077 3.54949L16.4503 5.79104L14.2077 3.54949ZM15.6498 1.57476L9.58587 7.63871C9.27255 7.95159 9.05886 8.35023 8.97174 8.78437L8.41162 11.5882L11.2154 11.027C11.6495 10.9402 12.0477 10.7273 12.3611 10.4139L18.425 4.34997C18.6072 4.16775 18.7518 3.95142 18.8504 3.71333C18.949 3.47525 18.9998 3.22007 18.9998 2.96237C18.9998 2.70466 18.949 2.44949 18.8504 2.2114C18.7518 1.97332 18.6072 1.75699 18.425 1.57476C18.2428 1.39254 18.0265 1.24799 17.7884 1.14938C17.5503 1.05076 17.2951 1 17.0374 1C16.7797 1 16.5245 1.05076 16.2864 1.14938C16.0484 1.24799 15.832 1.39254 15.6498 1.57476V1.57476Z" stroke="#6D727A" stroke-width="2" stroke-linecap="round" stroke-linejoin="round"/>
<path d="M16.8825 13.706V16.8825C16.8825 17.4442 16.6594 17.9828 16.2623 18.3799C15.8651 18.7771 15.3265 19.0002 14.7648 19.0002H3.11767C2.55603 19.0002 2.01739 18.7771 1.62025 18.3799C1.22311 17.9828 1 17.4442 1 16.8825V5.23534C1 4.6737 1.22311 4.13507 1.62025 3.73793C2.01739 3.34079 2.55603 3.11768 3.11767 3.11768H6.29417" stroke="#6D727A" stroke-width="2" stroke-linecap="round" stroke-linejoin="round"/>
</svg>
