<svg width="18" height="16" viewBox="0 0 18 16" fill="none" xmlns="http://www.w3.org/2000/svg">
<path d="M0.00244141 2.375C0.00244141 1.77826 0.239494 1.20597 0.661451 0.78401C1.08341 0.362053 1.6557 0.125 2.25244 0.125H15.7524C16.3492 0.125 16.9215 0.362053 17.3434 0.78401C17.7654 1.20597 18.0024 1.77826 18.0024 2.375V13.625C18.0024 14.2217 17.7654 14.794 17.3434 15.216C16.9215 15.6379 16.3492 15.875 15.7524 15.875H2.25244C1.6557 15.875 1.08341 15.6379 0.661451 15.216C0.239494 14.794 0.00244141 14.2217 0.00244141 13.625V2.375ZM1.12744 12.5V13.625C1.12744 13.9234 1.24597 14.2095 1.45695 14.4205C1.66792 14.6315 1.95407 14.75 2.25244 14.75H15.7524C16.0508 14.75 16.337 14.6315 16.5479 14.4205C16.7589 14.2095 16.8774 13.9234 16.8774 13.625V9.6875L12.6283 7.49713C12.5228 7.44428 12.4034 7.42594 12.2869 7.44472C12.1704 7.4635 12.0627 7.51843 11.9792 7.60175L7.80544 11.7755L4.81294 9.782C4.7049 9.71007 4.5753 9.67771 4.44612 9.69043C4.31695 9.70314 4.19614 9.76013 4.10419 9.85175L1.12744 12.5ZM6.75244 5.1875C6.75244 4.73995 6.57465 4.31072 6.25818 3.99426C5.94172 3.67779 5.51249 3.5 5.06494 3.5C4.61739 3.5 4.18817 3.67779 3.8717 3.99426C3.55523 4.31072 3.37744 4.73995 3.37744 5.1875C3.37744 5.63505 3.55523 6.06428 3.8717 6.38074C4.18817 6.69721 4.61739 6.875 5.06494 6.875C5.51249 6.875 5.94172 6.69721 6.25818 6.38074C6.57465 6.06428 6.75244 5.63505 6.75244 5.1875Z" fill="#6D727A"/>
</svg>
