<svg width="23" height="19" viewBox="0 0 23 19" fill="none" xmlns="http://www.w3.org/2000/svg">
<path d="M0.911133 2.41926C0.911133 1.80327 1.13414 1.21252 1.5311 0.776948C1.92806 0.341379 2.46644 0.0966797 3.02783 0.0966797H12.5529C13.1143 0.0966797 13.6527 0.341379 14.0497 0.776948C14.4466 1.21252 14.6696 1.80327 14.6696 2.41926V4.74184C14.6696 5.04983 14.5581 5.34521 14.3597 5.563C14.1612 5.78078 13.892 5.90313 13.6113 5.90313C13.3306 5.90313 13.0614 5.78078 12.8629 5.563C12.6645 5.34521 12.5529 5.04983 12.5529 4.74184V2.41926H3.02783V16.3547H12.5529V14.0322C12.5529 13.7242 12.6645 13.4288 12.8629 13.211C13.0614 12.9932 13.3306 12.8709 13.6113 12.8709C13.892 12.8709 14.1612 12.9932 14.3597 13.211C14.5581 13.4288 14.6696 13.7242 14.6696 14.0322V16.3547C14.6696 16.9707 14.4466 17.5615 14.0497 17.9971C13.6527 18.4326 13.1143 18.6773 12.5529 18.6773H3.02783C2.46644 18.6773 1.92806 18.4326 1.5311 17.9971C1.13414 17.5615 0.911133 16.9707 0.911133 16.3547V2.41926ZM17.0964 5.0821C17.2949 4.86439 17.564 4.74209 17.8447 4.74209C18.1253 4.74209 18.3945 4.86439 18.5929 5.0821L21.768 8.56597C21.9664 8.78374 22.0778 9.07907 22.0778 9.387C22.0778 9.69493 21.9664 9.99026 21.768 10.208L18.5929 13.6919C18.3933 13.9034 18.126 14.0205 17.8485 14.0178C17.571 14.0152 17.3055 13.8931 17.1093 13.6778C16.9131 13.4624 16.8018 13.1712 16.7994 12.8667C16.797 12.5622 16.9036 12.2689 17.0964 12.0498L18.4649 10.5483H8.31956C8.03887 10.5483 7.76968 10.4259 7.5712 10.2082C7.37272 9.99037 7.26121 9.69499 7.26121 9.387C7.26121 9.07901 7.37272 8.78363 7.5712 8.56585C7.76968 8.34806 8.03887 8.22571 8.31956 8.22571H18.4649L17.0964 6.72416C16.898 6.50639 16.7866 6.21106 16.7866 5.90313C16.7866 5.5952 16.898 5.29987 17.0964 5.0821Z" fill="#6D727A"/>
</svg>
