<svg width="400" height="279" viewBox="0 0 400 279" fill="none" xmlns="http://www.w3.org/2000/svg">
<path d="M75.8856 59.7145C88.5026 59.7145 98.7307 49.4687 98.7307 36.8299C98.7307 24.1911 88.5026 13.9453 75.8856 13.9453C63.2686 13.9453 53.0405 24.1911 53.0405 36.8299C53.0405 49.4687 63.2686 59.7145 75.8856 59.7145Z" fill="#FF6584"/>
<path d="M187.035 122.691C187.035 176.688 154.99 195.542 115.461 195.542C75.9309 195.542 43.8857 176.688 43.8857 122.691C43.8857 68.6933 115.461 0 115.461 0C115.461 0 187.035 68.6933 187.035 122.691Z" fill="#F2F2F2"/>
<path d="M112.853 187.282L113.586 142.091L144.093 86.1834L113.701 135.002L114.031 114.682L135.056 74.2337L114.118 109.305L114.71 72.7591L137.225 40.5569L114.804 67.0122L115.174 0L112.847 88.7122L113.038 85.0524L90.1477 49.9542L112.671 92.0776L110.538 132.893L110.475 131.81L84.0859 94.8742L110.395 135.637L110.128 140.741L110.08 140.818L110.102 141.237L104.691 244.79H111.921L112.788 191.303L139.032 150.64L112.853 187.282Z" fill="#3F3D56"/>
<path d="M400 144.806C400 189.006 373.77 204.439 341.413 204.439C309.056 204.439 282.825 189.006 282.825 144.806C282.825 100.607 341.413 44.3783 341.413 44.3783C341.413 44.3783 400 100.607 400 144.806Z" fill="#F2F2F2"/>
<path d="M339.279 197.678L339.878 160.687L364.85 114.924L339.972 154.884L340.242 138.251L357.452 105.142L340.314 133.849L340.799 103.935L359.228 77.5759L340.875 99.2312L341.178 44.3782L339.273 116.993L339.43 113.998L320.693 85.268L339.129 119.748L337.383 153.158L337.331 152.271L315.731 122.037L337.266 155.404L337.048 159.582L337.009 159.645L337.026 159.988L332.597 244.75H338.515L339.225 200.969L360.707 167.684L339.279 197.678Z" fill="#3F3D56"/>
<path d="M197.964 253.344C307.297 253.344 395.928 248.856 395.928 243.32C395.928 237.784 307.297 233.296 197.964 233.296C88.6315 233.296 0 237.784 0 243.32C0 248.856 88.6315 253.344 197.964 253.344Z" fill="#3F3D56"/>
<path d="M318.562 261.599C337.288 261.599 352.468 260.83 352.468 259.882C352.468 258.934 337.288 258.165 318.562 258.165C299.836 258.165 284.655 258.934 284.655 259.882C284.655 260.83 299.836 261.599 318.562 261.599Z" fill="#3F3D56"/>
<path d="M195.868 278.161C214.594 278.161 229.775 277.392 229.775 276.444C229.775 275.496 214.594 274.727 195.868 274.727C177.142 274.727 161.961 275.496 161.961 276.444C161.961 277.392 177.142 278.161 195.868 278.161Z" fill="#3F3D56"/>
<path d="M102.783 266.48C145.565 266.48 180.247 264.724 180.247 262.558C180.247 260.391 145.565 258.635 102.783 258.635C60.0007 258.635 25.3188 260.391 25.3188 262.558C25.3188 264.724 60.0007 266.48 102.783 266.48Z" fill="#3F3D56"/>
<path d="M34.6545 230.73C50.2285 230.73 62.8538 218.083 62.8538 202.482C62.8538 186.881 50.2285 174.234 34.6545 174.234C19.0804 174.234 6.45508 186.881 6.45508 202.482C6.45508 218.083 19.0804 230.73 34.6545 230.73Z" fill="#2F2E41"/>
<path d="M35.4522 204.994C40.775 204.994 45.09 200.672 45.09 195.34C45.09 190.008 40.775 185.685 35.4522 185.685C30.1294 185.685 25.8145 190.008 25.8145 195.34C25.8145 200.672 30.1294 204.994 35.4522 204.994Z" fill="white"/>
<path d="M35.4523 198.558C37.2266 198.558 38.6649 197.117 38.6649 195.34C38.6649 193.562 37.2266 192.122 35.4523 192.122C33.6781 192.122 32.2397 193.562 32.2397 195.34C32.2397 197.117 33.6781 198.558 35.4523 198.558Z" fill="#3F3D56"/>
<path d="M7.61094 175.891C5.45427 165.65 12.8537 155.415 24.1381 153.03C35.4224 150.646 46.3185 157.015 48.4752 167.256C50.6319 177.497 43.1286 181.176 31.8443 183.561C20.5599 185.945 9.7676 186.132 7.61094 175.891Z" fill="#5F86FF"/>
<path d="M77.6703 218.241C77.6703 237.935 65.9836 244.811 51.5662 244.811C51.2322 244.811 50.8988 244.807 50.5658 244.8C49.8978 244.786 49.2362 244.754 48.5825 244.709C35.5711 243.787 25.4622 236.557 25.4622 218.241C25.4622 199.287 49.6418 175.37 51.4581 173.6L51.4612 173.596C51.5312 173.528 51.5662 173.495 51.5662 173.495C51.5662 173.495 77.6703 198.548 77.6703 218.241Z" fill="#5F86FF"/>
<path d="M50.6153 241.798L60.1627 228.435L50.5914 243.266L50.566 244.8C49.898 244.786 49.2363 244.754 48.5827 244.709L49.6117 225.006L49.6037 224.853L49.6212 224.824L49.7182 222.963L40.123 208.096L49.7485 221.568L49.7707 221.963L50.5485 207.076L42.3338 191.713L50.6487 204.463L51.4582 173.6L51.4614 173.495V173.596L51.3262 197.934L59.5043 188.286L51.2928 200.031L51.0765 213.36L58.7122 200.568L51.0447 215.321L50.9238 222.731L62.0092 204.927L50.8825 225.317L50.6153 241.798Z" fill="#3F3D56"/>
<path d="M254.324 230.425C269.898 230.425 282.524 217.778 282.524 202.177C282.524 186.576 269.898 173.928 254.324 173.928C238.75 173.928 226.125 186.576 226.125 202.177C226.125 217.778 238.75 230.425 254.324 230.425Z" fill="#2F2E41"/>
<path d="M252.91 204.785C258.233 204.785 262.548 200.463 262.548 195.131C262.548 189.799 258.233 185.476 252.91 185.476C247.587 185.476 243.272 189.799 243.272 195.131C243.272 200.463 247.587 204.785 252.91 204.785Z" fill="white"/>
<path d="M252.909 198.349C254.684 198.349 256.122 196.908 256.122 195.131C256.122 193.353 254.684 191.912 252.909 191.912C251.135 191.912 249.697 193.353 249.697 195.131C249.697 196.908 251.135 198.349 252.909 198.349Z" fill="#3F3D56"/>
<path d="M220.473 185.115C215.301 176.021 219.232 164.013 229.252 158.294C239.273 152.575 251.589 155.312 256.761 164.406C261.933 173.5 255.908 179.297 245.887 185.015C235.867 190.734 225.646 194.21 220.473 185.115Z" fill="#5F86FF"/>
<path d="M204.032 214.635C204.032 232.713 193.304 239.025 180.07 239.025C179.763 239.025 179.457 239.021 179.151 239.015C178.538 239.001 177.931 238.972 177.331 238.931C165.387 238.085 156.107 231.448 156.107 214.635C156.107 197.236 178.303 175.281 179.97 173.656L179.973 173.653C180.038 173.59 180.07 173.56 180.07 173.56C180.07 173.56 204.032 196.557 204.032 214.635Z" fill="#5F86FF"/>
<path d="M179.197 236.259L187.961 223.992L179.175 237.606L179.152 239.015C178.538 239.001 177.931 238.972 177.331 238.931L178.276 220.845L178.268 220.704L178.284 220.678L178.373 218.97L169.565 205.322L178.401 217.689L178.422 218.051L179.135 204.386L171.595 190.283L179.227 201.987L179.971 173.656L179.973 173.56V173.653L179.849 195.994L187.356 187.137L179.819 197.919L179.62 210.154L186.629 198.412L179.591 211.954L179.48 218.756L189.656 202.413L179.442 221.13L179.197 236.259Z" fill="#3F3D56"/>
<path d="M298.268 222.174C298.268 241.868 286.582 248.744 272.164 248.744C271.83 248.744 271.497 248.741 271.164 248.733C270.496 248.719 269.834 248.687 269.18 248.642C256.169 247.72 246.06 240.49 246.06 222.174C246.06 203.22 270.24 179.303 272.056 177.533L272.059 177.53C272.129 177.461 272.164 177.428 272.164 177.428C272.164 177.428 298.268 202.481 298.268 222.174Z" fill="#5F86FF"/>
<path d="M271.213 245.732L280.76 232.368L271.189 247.199L271.164 248.733C270.496 248.719 269.834 248.687 269.18 248.642L270.209 228.939L270.201 228.786L270.219 228.758L270.316 226.897L260.721 212.029L270.346 225.501L270.368 225.896L271.146 211.009L262.931 195.646L271.246 208.397L272.056 177.533L272.059 177.428V177.53L271.924 201.868L280.102 192.219L271.89 203.964L271.674 217.293L279.31 204.501L271.642 219.254L271.521 226.664L282.607 208.86L271.48 229.25L271.213 245.732Z" fill="#3F3D56"/>
<path d="M256.115 219.087C257.163 216.874 252.309 212.371 245.273 209.028C238.237 205.685 231.684 204.769 230.637 206.982C229.589 209.194 234.443 213.698 241.479 217.041C248.515 220.383 255.068 221.299 256.115 219.087Z" fill="#2F2E41"/>
<path d="M39.0785 216.501C39.988 214.228 34.8658 210.033 27.6377 207.131C20.4097 204.229 13.8129 203.719 12.9034 205.992C11.9939 208.265 17.1161 212.46 24.3441 215.362C31.5722 218.264 38.169 218.774 39.0785 216.501Z" fill="#2F2E41"/>
</svg>

