<svg width="400" height="250" viewBox="0 0 400 250" fill="none" xmlns="http://www.w3.org/2000/svg">
<g clip-path="url(#clip0)">
<path d="M104.54 152.196C146.568 152.196 180.638 118.126 180.638 76.098C180.638 34.0702 146.568 0 104.54 0C62.5121 0 28.4419 34.0702 28.4419 76.098C28.4419 118.126 62.5121 152.196 104.54 152.196Z" fill="#F2F2F2"/>
<path d="M0 18.2715C0 45.959 17.3697 68.3633 38.8352 68.3633L0 18.2715Z" fill="#2F2E41"/>
<path d="M38.8354 68.3634C38.8354 40.3648 58.219 17.7087 82.1733 17.7087L38.8354 68.3634Z" fill="#5F86FF"/>
<path d="M14.0708 20.7814C14.0708 47.0815 25.1471 68.3633 38.8353 68.3633L14.0708 20.7814Z" fill="#5F86FF"/>
<path d="M38.8354 68.3633C38.8354 32.5874 61.2398 3.63794 88.9273 3.63794L38.8354 68.3633Z" fill="#2F2E41"/>
<path d="M30.6655 68.7164C30.6655 68.7164 36.173 68.5468 37.8328 67.3649C39.4926 66.183 46.3047 64.7717 46.7165 66.6672C47.1282 68.5628 54.9932 76.0949 48.7753 76.145C42.5574 76.1952 34.3276 75.1765 32.671 74.1674C31.0144 73.1583 30.6655 68.7164 30.6655 68.7164Z" fill="#A8A8A8"/>
<path opacity="0.2" d="M48.8862 75.4851C42.6683 75.5353 34.4386 74.5166 32.7819 73.5075C31.5203 72.739 31.0176 69.9815 30.8494 68.7092C30.7329 68.7142 30.6655 68.7164 30.6655 68.7164C30.6655 68.7164 31.0144 73.1582 32.671 74.1673C34.3276 75.1764 42.5574 76.1951 48.7753 76.145C50.5701 76.1305 51.1901 75.4919 51.1561 74.5461C50.9067 75.1175 50.2222 75.4744 48.8862 75.4851Z" fill="black"/>
<path d="M70.9565 160.749C107.854 160.749 137.766 156.68 137.766 151.66C137.766 146.64 107.854 142.571 70.9565 142.571C34.0589 142.571 4.14746 146.64 4.14746 151.66C4.14746 156.68 34.0589 160.749 70.9565 160.749Z" fill="#3F3D56"/>
<path opacity="0.1" d="M70.9562 159.291C101.934 159.291 127.047 155.874 127.047 151.66C127.047 147.446 101.934 144.029 70.9562 144.029C39.978 144.029 14.8652 147.446 14.8652 151.66C14.8652 155.874 39.978 159.291 70.9562 159.291Z" fill="black"/>
<path d="M298.893 249.73C354.733 249.73 400 243.572 400 235.975C400 228.379 354.733 222.22 298.893 222.22C243.054 222.22 197.787 228.379 197.787 235.975C197.787 243.572 243.054 249.73 298.893 249.73Z" fill="#3F3D56"/>
<path d="M110.97 238.879C144.514 238.879 171.706 235.18 171.706 230.616C171.706 226.053 144.514 222.354 110.97 222.354C77.4271 222.354 50.2349 226.053 50.2349 230.616C50.2349 235.18 77.4271 238.879 110.97 238.879Z" fill="#3F3D56"/>
<path d="M165.275 223.649C197.429 231.867 259.237 212.931 266.025 191.495" stroke="#2F2E41" stroke-width="0.816356" stroke-miterlimit="10"/>
<path d="M110.614 92.5323C110.614 92.5323 157.059 79.6707 159.917 121.114C162.775 162.557 121.689 174.347 153.843 182.564" stroke="#2F2E41" stroke-width="0.816356" stroke-miterlimit="10"/>
<path d="M65.7417 191.954C65.7417 191.954 79.701 188.088 80.56 200.544C81.419 213 69.0705 216.544 78.7346 219.013" stroke="#2F2E41" stroke-width="0.816356" stroke-miterlimit="10"/>
<path d="M278.205 201.227L275.391 219.196C275.391 219.196 261.536 226.557 271.278 226.773C281.02 226.99 326.916 226.773 326.916 226.773C326.916 226.773 335.792 226.773 321.72 218.98L318.906 200.145L278.205 201.227Z" fill="#2F2E41"/>
<path opacity="0.1" d="M269.319 226.578C271.531 224.61 275.392 222.558 275.392 222.558L278.206 204.589L318.907 204.628L321.721 222.342C325.003 224.159 327.036 225.553 328.225 226.621C330.032 226.209 332.007 224.676 321.721 218.98L318.907 200.145L278.206 201.227L275.392 219.196C275.392 219.196 263.749 225.382 269.319 226.578Z" fill="black"/>
<path d="M383.576 75.9868H213.102C209.541 75.9868 206.655 78.8733 206.655 82.434V197.27C206.655 200.831 209.541 203.717 213.102 203.717H383.576C387.137 203.717 390.023 200.831 390.023 197.27V82.434C390.023 78.8733 387.137 75.9868 383.576 75.9868Z" fill="#2F2E41"/>
<path d="M383.854 82.8063H212.825V178.496H383.854V82.8063Z" fill="#3F3D56"/>
<path d="M298.34 80.8578C298.938 80.8578 299.422 80.3732 299.422 79.7753C299.422 79.1775 298.938 78.6929 298.34 78.6929C297.742 78.6929 297.257 79.1775 297.257 79.7753C297.257 80.3732 297.742 80.8578 298.34 80.8578Z" fill="#F2F2F2"/>
<path d="M390.023 186.073V197.27C390.024 198.117 389.857 198.955 389.533 199.737C389.209 200.519 388.734 201.23 388.135 201.829C387.537 202.428 386.826 202.902 386.044 203.226C385.261 203.55 384.423 203.717 383.576 203.717H213.102C212.255 203.717 211.417 203.55 210.635 203.226C209.852 202.902 209.142 202.428 208.543 201.829C207.944 201.23 207.469 200.519 207.145 199.737C206.821 198.955 206.655 198.117 206.655 197.27V186.073H390.023Z" fill="#2F2E41"/>
<path d="M346.184 238.464V240.629H229.711V238.897L229.872 238.464L232.742 230.67H343.803L346.184 238.464Z" fill="#2F2E41"/>
<path d="M391.007 236.345C390.795 237.252 389.994 238.209 388.184 239.113C381.689 242.361 368.483 238.247 368.483 238.247C368.483 238.247 358.308 236.516 358.308 231.969C358.594 231.774 358.892 231.596 359.2 231.439C361.931 229.994 370.984 226.429 387.037 231.59C388.22 231.961 389.277 232.653 390.089 233.589C390.739 234.351 391.25 235.317 391.007 236.345Z" fill="#2F2E41"/>
<path opacity="0.1" d="M391.007 236.345C383.058 239.391 375.972 239.618 368.7 234.567C365.032 232.021 361.701 231.391 359.2 231.439C361.931 229.994 370.984 226.429 387.038 231.59C388.22 231.961 389.277 232.653 390.089 233.589C390.74 234.351 391.25 235.317 391.007 236.345Z" fill="black"/>
<path d="M381.04 234.567C382.594 234.567 383.854 234.179 383.854 233.701C383.854 233.223 382.594 232.835 381.04 232.835C379.485 232.835 378.225 233.223 378.225 233.701C378.225 234.179 379.485 234.567 381.04 234.567Z" fill="#F2F2F2"/>
<path d="M298.34 199.062C300.612 199.062 302.453 197.221 302.453 194.949C302.453 192.677 300.612 190.836 298.34 190.836C296.068 190.836 294.227 192.677 294.227 194.949C294.227 197.221 296.068 199.062 298.34 199.062Z" fill="#F2F2F2"/>
<path opacity="0.1" d="M346.184 238.464V240.629H229.711V238.897L229.872 238.464H346.184Z" fill="black"/>
<path d="M113.114 56.8055H38.8027V143.264H113.114V56.8055Z" fill="#2F2E41"/>
<path d="M120.617 48.2311H31.2998V78.9561H120.617V48.2311Z" fill="#3F3D56"/>
<path d="M120.617 84.6724H31.2998V115.397H120.617V84.6724Z" fill="#3F3D56"/>
<path d="M120.617 121.114H31.2998V151.839H120.617V121.114Z" fill="#3F3D56"/>
<path opacity="0.4" d="M102.753 53.5901H97.0371V59.3064H102.753V53.5901Z" fill="#5F86FF"/>
<path opacity="0.8" d="M110.971 53.5901H105.254V59.3064H110.971V53.5901Z" fill="#5F86FF"/>
<path d="M119.188 53.5901H113.472V59.3064H119.188V53.5901Z" fill="#5F86FF"/>
<path opacity="0.4" d="M102.753 89.6742H97.0371V95.3905H102.753V89.6742Z" fill="#5F86FF"/>
<path opacity="0.8" d="M110.971 89.6742H105.254V95.3905H110.971V89.6742Z" fill="#5F86FF"/>
<path d="M119.188 89.6742H113.472V95.3905H119.188V89.6742Z" fill="#5F86FF"/>
<path opacity="0.4" d="M102.753 125.758H97.0371V131.474H102.753V125.758Z" fill="#5F86FF"/>
<path opacity="0.8" d="M110.971 125.758H105.254V131.474H110.971V125.758Z" fill="#5F86FF"/>
<path d="M119.188 125.758H113.472V131.474H119.188V125.758Z" fill="#5F86FF"/>
<path d="M113.114 220.434C128.702 220.434 141.338 207.798 141.338 192.21C141.338 176.622 128.702 163.986 113.114 163.986C97.526 163.986 84.8896 176.622 84.8896 192.21C84.8896 207.798 97.526 220.434 113.114 220.434Z" fill="#2F2E41"/>
<path d="M108.827 214.36H100.252V229.723H108.827V214.36Z" fill="#2F2E41"/>
<path d="M125.976 214.36H117.402V229.723H125.976V214.36Z" fill="#2F2E41"/>
<path d="M107.398 232.581C111.344 232.581 114.543 231.382 114.543 229.902C114.543 228.422 111.344 227.222 107.398 227.222C103.452 227.222 100.252 228.422 100.252 229.902C100.252 231.382 103.452 232.581 107.398 232.581Z" fill="#2F2E41"/>
<path d="M124.547 232.224C128.493 232.224 131.693 231.024 131.693 229.544C131.693 228.065 128.493 226.865 124.547 226.865C120.601 226.865 117.402 228.065 117.402 229.544C117.402 231.024 120.601 232.224 124.547 232.224Z" fill="#2F2E41"/>
<path d="M113.829 194.711C119.156 194.711 123.475 190.392 123.475 185.065C123.475 179.737 119.156 175.418 113.829 175.418C108.501 175.418 104.183 179.737 104.183 185.065C104.183 190.392 108.501 194.711 113.829 194.711Z" fill="white"/>
<path d="M113.829 188.28C115.605 188.28 117.045 186.84 117.045 185.065C117.045 183.289 115.605 181.849 113.829 181.849C112.053 181.849 110.614 183.289 110.614 185.065C110.614 186.84 112.053 188.28 113.829 188.28Z" fill="#3F3D56"/>
<path d="M85.7361 165.962C83.4571 155.756 90.7421 145.443 102.007 142.928C113.273 140.412 124.253 146.647 126.532 156.853C128.811 167.059 121.345 170.824 110.079 173.339C98.8139 175.854 88.0151 176.169 85.7361 165.962Z" fill="#5F86FF"/>
<path d="M139.586 186.581C146.751 183.514 151.779 179.204 150.816 176.955C149.853 174.706 143.264 175.368 136.099 178.435C128.934 181.502 123.906 185.811 124.869 188.061C125.831 190.31 132.42 189.647 139.586 186.581Z" fill="#2F2E41"/>
<path d="M86.7101 205.516C93.8753 202.449 98.9033 198.14 97.9406 195.89C96.9779 193.641 90.3889 194.303 83.2237 197.37C76.0585 200.437 71.0305 204.746 71.9932 206.996C72.9559 209.245 79.5449 208.583 86.7101 205.516Z" fill="#2F2E41"/>
<path d="M129.548 200.427C129.548 203.189 122.436 208.644 114.543 208.644C106.651 208.644 99.1807 203.547 99.1807 200.784C99.1807 198.022 106.651 198.641 114.543 198.641C122.436 198.641 129.548 197.665 129.548 200.427Z" fill="white"/>
</g>
<defs>
<clipPath id="clip0">
<rect width="400" height="249.73" fill="white"/>
</clipPath>
</defs>
</svg>
